<svg xmlns="http://www.w3.org/2000/svg" width="256" height="256" viewBox="0 0 256 256">
  <!-- Brand color background -->
  <rect width="256" height="256" fill="#3858e9"/>

  <!-- WordPress logo (white, large, centered) -->
  <g transform="translate(22, 18) scale(3.3)">
    <path d="M32 0c-17.645 0-32 14.355-32 32C0 49.6 14.4 64 32 64s32-14.355 32-32.001C64 14.4 49.6 0 32 0z M32 62.533c-16.835 0-30.533-13.698-30.533-30.534C1.467 15.2 15.2 1.5 32 1.5s30.534 13.7 30.5 30.532C62.533 48.8 48.8 62.5 32 62.533z" fill="#ffffff"/>
    <path d="M4.548 31.999c0 10.9 6.3 20.3 15.5 24.706L6.925 20.827C5.402 24.2 4.5 28 4.5 31.999z" fill="#ffffff"/>
    <path d="M50.531 30.614c0-3.394-1.219-5.742-2.264-7.57c-1.391-2.263-2.695-4.177-2.695-6.439c0-2.523 1.912-4.872 4.609-4.872c0.121 0 0.2 0 0.4 0.022C45.653 7.3 39.1 4.5 32 4.548c-9.591 0-18.027 4.921-22.936 12.4c0.645 0 1.3 0 1.8 0.033c2.871 0 7.316-0.349 7.316-0.349c1.479-0.086 1.7 2.1 0.2 2.3c0 0-1.487 0.174-3.142 0.261l9.997 29.735l6.008-18.017l-4.276-11.718c-1.479-0.087-2.879-0.261-2.879-0.261c-1.48-0.087-1.306-2.349 0.174-2.262c0 0 4.5 0.3 7.2 0.349c2.87 0 7.317-0.349 7.317-0.349c1.479-0.086 1.7 2.1 0.2 2.262c0 0-1.489 0.174-3.142 0.261l9.92 29.508l2.739-9.148C49.628 35.7 50.5 33 50.5 30.614z" fill="#ffffff"/>
    <path d="M32.481 34.4l-8.237 23.934c2.46 0.7 5.1 1.1 7.8 1.1c3.197 0 6.262-0.552 9.116-1.556c-0.072-0.118-0.141-0.243-0.196-0.379L32.481 34.4z" fill="#ffffff"/>
    <path d="M56.088 18.8c0.119 0.9 0.2 1.8 0.2 2.823c0 2.785-0.521 5.916-2.088 9.832l-8.385 24.242c8.161-4.758 13.65-13.6 13.65-23.728C59.451 27.2 58.2 22.7 56.1 18.83z" fill="#ffffff"/>
  </g>

  <!-- White filled circle with thin outline for Alibaba Cloud logo -->
  <circle cx="195" cy="195" r="45" fill="#ffffff" stroke="#ffffff" stroke-width="3"/>

  <!-- Alibaba Cloud logo (original colors, scaled up tight) -->
  <g transform="translate(160, 156) scale(1.03)">
    <polygon fill="#1c54e3" points="16.93 28.29 16.93 47.84 16.93 47.84 33.86 38.06 33.86 38.06 16.93 28.29"/>
    <path fill="#aa9aff" d="M64.71,16.77s-.02-.02-.03-.02l-13.88-8.02L16.93,28.29l16.93,9.78,30.78-17.77.05-.03c.61-.35,1.02-1,1.02-1.75s-.4-1.39-1-1.74Z"/>
    <path fill="#00ead1" d="M65.71,39.54c-.37,0-.71.1-1,.27,0,0-.02,0-.03.01,0,0,0,0,0,0l-13.88,8.02h0l16.02,9.25h.02c.56-.96.89-2.09.89-3.3,0-.02,0-.03,0-.05,0-.01,0-.03,0-.04v-12.14c0-1.11-.9-2.02-2.02-2.02Z"/>
    <path fill="#00cec9" d="M66.82,57.09l-16.02-9.25-33.86,19.55h0s13.55,7.82,13.55,7.82h0s.05.02.07.04c.98.57,2.11.89,3.32.89s2.34-.33,3.32-.89c.02-.01.05-.02.07-.04,0,0,0,0,0,0l27.09-15.64s.02-.01.03-.02c1.02-.58,1.87-1.43,2.46-2.45h-.02Z"/>
    <path fill="#00ead1" d="M33.86,38.06h0s-16.93,9.78-16.93,9.78l-4.58,2.64L.91,57.09h-.02c.55.96,1.32,1.76,2.25,2.34l.25.14s0,0,0,0l.05.03.06.04,13.43,7.75h0s0,0,0,0l33.86-19.55h0l-16.93-9.78Z"/>
    <path fill="#7347ff" d="M37.25.91c-.32-.19-.66-.34-1-.47-.06-.02-.12-.05-.18-.07-.03-.01-.06-.02-.1-.03-.66-.22-1.38-.35-2.12-.35s-1.45.12-2.12.35c-.03.01-.06.02-.1.03-.06.02-.12.04-.18.07-.34.13-.67.28-1,.47h0L3.39,16.56s-.01,0-.02.01c-1.03.58-1.88,1.43-2.48,2.45h.02s16.02,9.26,16.02,9.26h0S50.8,8.74,50.8,8.74L37.25.91Z"/>
    <path fill="#0423da" d="M.91,19.03h-.02c-.56.96-.89,2.09-.89,3.3v31.46c0,1.2.32,2.33.89,3.31h.02s16.02-9.26,16.02-9.26h0v-19.55h0S.91,19.03.91,19.03Z"/>
  </g>
</svg>
